<?xml version="1.0" standalone="no"?>
<!DOCTYPE svg PUBLIC "-//W3C//DTD SVG 20010904//EN"
 "http://www.w3.org/TR/2001/REC-SVG-20010904/DTD/svg10.dtd">
<svg version="1.0" xmlns="http://www.w3.org/2000/svg"
 width="284.000000pt" height="284.000000pt" viewBox="0 0 284.000000 284.000000"
 preserveAspectRatio="xMidYMid meet">
<metadata>
Created by potrace 1.16, written by Peter Selinger 2001-2019
</metadata>
<g transform="translate(0.000000,284.000000) scale(0.100000,-0.100000)"
fill="#000000" stroke="none">
<path d="M263 2473 c11 -10 -13 -32 -29 -26 -8 3 -14 0 -14 -7 0 -6 -10 -10
-22 -8 -15 2 -26 -5 -35 -22 -9 -18 -13 -20 -13 -7 0 11 -8 17 -25 17 -18 0
-25 -5 -25 -20 0 -12 -7 -20 -16 -20 -9 0 -22 -7 -29 -17 -8 -11 -14 -13 -19
-5 -4 7 -2 12 3 12 6 0 11 5 11 11 0 6 -10 9 -22 7 l-23 -3 -3 -1193 -2 -1192
161 0 c124 0 160 3 156 13 -2 6 -15 12 -28 13 -13 1 -33 2 -45 3 -39 2 -108
80 -140 158 -15 36 -18 204 -5 288 19 116 92 456 105 487 8 18 24 65 36 103
12 39 34 95 50 125 15 30 34 74 41 98 14 50 128 170 169 178 14 3 35 10 48 15
13 5 38 9 57 9 31 0 34 2 40 43 4 23 18 83 31 132 13 50 24 100 24 112 0 12 6
34 14 50 38 76 52 127 62 226 5 50 4 67 -6 67 -7 0 -10 7 -6 15 8 21 -14 19
-30 -2 -12 -16 -13 -15 -14 14 0 17 6 34 13 36 7 3 4 6 -6 6 -10 1 -15 6 -12
11 3 6 1 10 -4 10 -6 0 -11 7 -11 15 0 8 -7 15 -15 15 -8 0 -15 7 -15 15 0 18
-16 20 -24 3 -4 -7 -4 -3 -2 10 4 22 -6 26 -51 25 -7 -1 -13 5 -13 13 0 8 -4
14 -10 14 -5 0 -10 -5 -10 -12 0 -6 -3 -9 -6 -6 -3 4 2 20 11 37 9 17 11 31 5
31 -5 0 -10 -4 -10 -10 0 -5 -6 -7 -14 -4 -9 3 -16 -2 -19 -13 -2 -10 -2 2 1
26 3 31 1 42 -7 37 -6 -4 -11 -15 -11 -24 0 -27 -15 -43 -33 -36 -9 3 -14 10
-11 15 3 5 10 7 15 4 14 -9 11 12 -7 47 -11 21 -19 27 -26 20 -8 -8 -7 -16 2
-27 11 -13 9 -15 -13 -15 -21 0 -26 6 -33 38 -4 22 -9 30 -11 20 -3 -10 -9
-18 -15 -18 -6 0 -8 9 -5 20 4 16 0 19 -24 17 -16 -1 -29 -8 -29 -14 0 -7 -4
-13 -9 -13 -13 0 -32 26 -24 33 3 4 -2 7 -12 7 -10 0 -15 -3 -12 -7z"/>
<path d="M1230 2053 c0 -5 -9 -39 -20 -78 -27 -96 -25 -116 10 -150 36 -35 88
-39 120 -10 21 19 63 145 58 173 -6 33 -22 12 -48 -64 -29 -87 -45 -103 -87
-88 -23 8 -29 16 -31 48 -2 21 1 50 7 65 5 14 13 45 16 69 6 34 4 42 -9 42 -9
0 -16 -3 -16 -7z"/>
<path d="M1437 1913 c-3 -7 -2 -56 2 -138 2 -39 25 -30 59 22 34 52 40 48 44
-31 2 -27 8 -51 15 -53 10 -4 76 87 90 124 12 31 -24 9 -45 -27 -12 -22 -27
-40 -32 -40 -5 0 -10 26 -12 57 -4 75 -23 79 -63 15 l-30 -47 -3 63 c-3 54
-13 78 -25 55z"/>
<path d="M1705 1878 c-12 -34 -35 -135 -35 -154 0 -27 36 -73 66 -84 50 -20
81 10 113 109 14 42 14 101 1 101 -8 0 -27 -54 -45 -131 -4 -15 -17 -32 -30
-39 -20 -11 -28 -10 -50 4 -30 20 -30 30 -5 121 10 38 16 73 14 77 -8 12 -24
10 -29 -4z"/>
<path d="M2117 1833 c-12 -11 -8 -23 8 -23 12 0 35 -28 35 -44 0 -3 -9 -6 -20
-6 -12 0 -20 -6 -18 -12 2 -7 -2 -13 -7 -13 -5 0 -9 6 -7 13 3 14 -66 14 -75
-1 -2 -4 -11 -3 -19 4 -11 9 -14 8 -14 -4 0 -8 -6 -17 -14 -20 -7 -3 -17 -23
-21 -44 -4 -20 -15 -55 -26 -77 -10 -22 -19 -45 -19 -50 0 -10 -78 -260 -103
-328 -8 -23 -15 -28 -41 -28 -17 0 -39 7 -50 15 -20 16 -124 40 -133 31 -3 -3
4 -23 16 -46 11 -22 21 -47 21 -55 0 -8 37 -32 83 -54 63 -31 93 -52 130 -96
67 -77 75 -96 81 -205 3 -52 8 -126 11 -165 3 -38 7 -167 8 -286 l2 -215 -28
-37 c-15 -20 -40 -40 -54 -43 -21 -6 -23 -8 -9 -16 20 -11 62 10 109 55 64 59
74 62 152 32 72 -27 175 -89 175 -106 0 -5 109 -9 275 -9 l275 0 0 825 c0 454
-4 825 -8 825 -4 0 -13 -5 -20 -12 -7 -7 -30 -11 -52 -9 -22 1 -40 -2 -40 -7
0 -12 -90 2 -99 16 -11 18 -61 23 -61 7 0 -8 -6 -12 -14 -9 -8 3 -13 11 -10
18 3 9 -8 15 -33 19 -53 9 -65 9 -58 -3 4 -6 15 -8 25 -5 14 5 17 2 13 -13 -4
-17 -8 -18 -29 -8 -13 6 -24 17 -24 24 0 6 -4 12 -10 12 -5 0 -10 5 -10 11 0
7 11 9 29 6 32 -7 42 -1 34 18 -2 8 -11 11 -19 8 -10 -4 -17 2 -21 16 -3 11
-10 18 -15 15 -5 -3 -2 -14 8 -25 16 -17 16 -19 1 -19 -10 0 -17 5 -17 12 0 9
-3 9 -11 1 -6 -6 -18 -9 -25 -6 -16 6 -19 -8 -5 -23 5 -5 12 -20 15 -34 5 -17
0 -13 -14 13 -11 20 -26 37 -33 37 -8 0 -8 3 2 9 7 5 10 14 7 20 -5 8 -15 5
-33 -9 -14 -11 -33 -20 -42 -20 -14 0 -14 2 -1 10 12 8 9 10 -12 10 -16 0 -28
5 -28 11 0 5 5 7 10 4 6 -3 10 -1 10 4 0 11 -15 15 -34 12 -5 -1 -13 4 -17 11
-6 9 -9 4 -9 -14 0 -16 -4 -28 -10 -28 -5 0 -10 19 -10 43 0 53 -28 85 -53 60z"/>
<path d="M775 1457 c17 -6 51 -23 76 -39 54 -33 124 -59 134 -50 4 4 13 -1 20
-11 7 -10 26 -20 41 -23 16 -3 71 -27 122 -55 52 -27 99 -49 106 -49 6 0 31
20 54 43 50 51 49 52 -53 85 -310 100 -286 95 -467 106 -54 3 -59 2 -33 -7z"/>
<path d="M655 140 c-68 -38 -149 -66 -230 -79 -28 -4 -43 -13 -52 -31 l-12
-25 81 -3 c55 -2 84 1 89 9 4 7 19 13 33 13 14 1 35 11 48 23 13 11 41 30 64
41 22 11 53 37 68 56 l27 36 -23 0 c-13 -1 -54 -18 -93 -40z"/>
</g>
</svg>
